# xmcd
#
# Track frame offsets: 
#        150
#        16061
#        30481
#        44481
#        57041
#        69337
#        82595
#        101840
#        114159
#        127717
#        141687
#        153061
#
# Disc length: 2379 seconds
#
# Revision: 0
# Processed by: cddbd v1.4PL0 Copyright (c) Steve Scherf et al.
# Submitted via: ExactAudioCopy v0.90b2
#
DISCID=8709490c
DTITLE=Dr. John - Destitively Bonnaroo
DYEAR=1974
DGENRE=R&B
TTITLE0=Quitters Never Win
TTITLE1=Stealin'
TTITLE2=What Comes Around (Goes Around)
TTITLE3=Me-You=Loneliness
TTITLE4=Mos' Scocious
TTITLE5=(Everybody Wanna Get Rich) Rite Away
TTITLE6=Let's Make A Better World
TTITLE7=R U 4 Real
TTITLE8=Sing Along Song
TTITLE9=Can't Git Enuff
TTITLE10=Go Tell The People
TTITLE11=Desitively Bonaroo
EXTD=
EXTT0=
EXTT1=
EXTT2=
EXTT3=
EXTT4=
EXTT5=
EXTT6=
EXTT7=
EXTT8=
EXTT9=
EXTT10=
EXTT11=
PLAYORDER=
